# xmcd
# Track frame offsets:
# 150
# 19995
# 29852
# 47392
# 65527
# 88702
# 102752
# 118667
# 141675
# 157980
# 175757
# 191860
# 204435
# 219352
# 246302
#
# Disc length: 3618 seconds
# Revision: 0
# Processed by: cddbd v1.5PL3 Copyright (c) Steve Scherf et al.
# Submitted via: VisiTrax 2.9.9.209 - For more info visit www.synapsa.com
#
DISCID=dc0e200f
DTITLE=Nick Binkley - Pin Srtipe Brain
DYEAR=1995
DGENRE=Country/Rock
TTITLE0=Pinstripe Brain
TTITLE1=Leave Us for a While
TTITLE2=Chasing Circles
TTITLE3=Top of the World
TTITLE4=Which Way's L.A.
TTITLE5=Blow Out the Light
TTITLE6=Best Friend
TTITLE7=Mister Eggman
TTITLE8=Heart Full of Stone
TTITLE9=Tucker Rose
TTITLE10=Mustang
TTITLE11=Main Squeeze
TTITLE12=Baby's Got a Way with Words
TTITLE13=Blue Red White Songs
TTITLE14=Let Fall a Tear
EXTD=
EXTT0=
EXTT1=
EXTT2=
EXTT3=
EXTT4=
EXTT5=
EXTT6=
EXTT7=
EXTT8=
EXTT9=
EXTT10=
EXTT11=
EXTT12=
EXTT13=
EXTT14=
PLAYORDER=
